<?xml version="1.0" encoding="UTF-8" standalone="no"?>
<!-- Created with Inkscape (http://www.inkscape.org/) -->

<svg
   xmlns:dc="http://purl.org/dc/elements/1.1/"
   xmlns:cc="http://creativecommons.org/ns#"
   xmlns:rdf="http://www.w3.org/1999/02/22-rdf-syntax-ns#"
   xmlns:svg="http://www.w3.org/2000/svg"
   xmlns="http://www.w3.org/2000/svg"
   xmlns:sodipodi="http://sodipodi.sourceforge.net/DTD/sodipodi-0.dtd"
   xmlns:inkscape="http://www.inkscape.org/namespaces/inkscape"
   width="150.05637mm"
   height="38.772518mm"
   viewBox="0 0 531.69578 137.38294"
   id="svg2"
   version="1.1"
   inkscape:version="0.91 r13725"
   sodipodi:docname="napis naazymut.svg">
  <defs
     id="defs4" />
  <sodipodi:namedview
     id="base"
     pagecolor="#ffffff"
     bordercolor="#666666"
     borderopacity="1.0"
     inkscape:pageopacity="0.0"
     inkscape:pageshadow="2"
     inkscape:zoom="0.35"
     inkscape:cx="-406.32017"
     inkscape:cy="-188.62663"
     inkscape:document-units="px"
     inkscape:current-layer="layer1"
     showgrid="false"
     inkscape:window-width="1366"
     inkscape:window-height="705"
     inkscape:window-x="-8"
     inkscape:window-y="-8"
     inkscape:window-maximized="1"
     fit-margin-top="0"
     fit-margin-left="0"
     fit-margin-right="0"
     fit-margin-bottom="0" />
  <metadata
     id="metadata7">
    <rdf:RDF>
      <cc:Work
         rdf:about="">
        <dc:format>image/svg+xml</dc:format>
        <dc:type
           rdf:resource="http://purl.org/dc/dcmitype/StillImage" />
        <dc:title />
      </cc:Work>
    </rdf:RDF>
  </metadata>
  <g
     inkscape:label="Layer 1"
     inkscape:groupmode="layer"
     id="layer1"
     transform="translate(-122.74874,-206.35264)">
    <g
       style="font-style:normal;font-weight:normal;font-size:123.8692627px;line-height:125%;font-family:sans-serif;letter-spacing:0px;word-spacing:0px;fill:#000000;fill-opacity:1;stroke:none;stroke-width:1px;stroke-linecap:butt;stroke-linejoin:miter;stroke-opacity:1"
       id="text3336">
      <path
         d="m 270.24114,221.84823 c 0.24774,-13.50175 -13.87336,-13.87336 -25.51707,-8.42311 -9.53793,4.33542 -20.06682,14.4927 -29.35701,25.7648 -6.19347,7.43216 -11.89145,15.35979 -16.35074,22.29647 -2.35352,3.59221 -7.06055,12.63467 -0.61935,-1.36256 4.21155,-9.29019 9.16632,-19.3236 10.28115,-28.86154 3.71608,-30.47184 -27.87059,-28.6138 -48.30901,-17.46556 -14.24497,7.80376 -27.99446,20.31456 -33.94018,34.55952 -10.40502,25.26933 2.97286,41.1246 18.70426,41.1246 32.82535,0 48.92835,-46.69872 19.57134,-39.63817 -1.23869,0.24774 -2.22965,2.22965 0.24774,1.98191 22.04873,-2.84899 6.56507,35.30274 -19.44748,35.30274 -24.52611,0 -20.31456,-45.33615 16.22688,-68.00423 21.30551,-13.25401 46.07936,-15.73139 38.89495,16.84622 -5.94573,26.26029 -25.26933,64.9075 -31.33893,73.82608 -0.99095,3.96382 8.17537,3.71608 10.28115,-0.74321 8.0515,-16.84622 20.81004,-46.69871 38.2756,-67.88036 8.79472,-10.52888 18.33265,-18.20878 27.49898,-22.5442 8.67085,-4.21156 16.59848,-4.08769 15.11205,4.58316 -1.98191,12.75853 -24.77385,54.50248 -29.10928,67.38488 -6.68894,20.06682 -1.73417,31.33892 15.11205,32.08214 9.04246,0.37161 11.27211,-8.67085 2.72513,-4.70703 -14.24497,6.56507 -18.45652,-8.67085 -7.18442,-33.32084 12.26306,-26.75576 27.99445,-48.06127 28.24219,-62.80171 z"
         style="font-style:normal;font-variant:normal;font-weight:normal;font-stretch:normal;font-size:123.8692627px;line-height:125%;font-family:'Great Vibes';-inkscape-font-specification:'Great Vibes, Normal';text-align:start;writing-mode:lr-tb;text-anchor:start;fill:#c00000;fill-opacity:1"
         id="path3336" />
      <path
         d="m 303.94132,281.80095 c 1.23869,-2.47738 -0.61935,-3.2206 -1.73417,-0.99095 -2.60126,5.32638 -10.77663,21.05777 -15.97914,20.81003 -1.6103,0 -2.22964,-2.35351 -1.23869,-7.43215 1.6103,-7.55603 8.91859,-20.5623 11.51984,-23.16355 -1.73417,0.3716 -3.59221,-0.37161 -5.20251,-0.49548 -3.96381,-0.24774 -5.69798,2.72512 -8.42311,7.92763 -3.2206,6.06959 -6.68894,12.13919 -11.02436,17.3417 -5.82186,6.93668 -12.63467,7.92763 -11.39597,-0.74322 0.74321,-4.70703 4.08768,-10.77662 5.07864,-12.51079 4.45929,-7.30829 10.90049,-14.61658 16.47461,-17.71331 4.58316,-2.47738 9.16632,-1.48643 10.52889,3.09673 2.10577,0.37161 3.09673,-1.73417 1.36256,-3.5922 -7.06055,-7.6799 -21.30552,-3.09674 -28.73767,5.69798 -18.70426,22.42034 -9.2902,44.09746 4.95477,30.47184 3.59221,-3.46834 6.93668,-8.42311 8.91859,-11.64371 -3.71608,13.00627 2.10577,16.22687 6.19346,15.97913 7.43216,-0.61934 14.98818,-15.48365 18.70426,-23.03968 z"
         style="font-style:normal;font-variant:normal;font-weight:normal;font-stretch:normal;font-size:123.8692627px;line-height:125%;font-family:'Great Vibes';-inkscape-font-specification:'Great Vibes, Normal';text-align:start;writing-mode:lr-tb;text-anchor:start;fill:#c00000;fill-opacity:1"
         id="path3338" />
      <path
         d="m 433.80276,224.57335 c 0,-9.16632 -8.0515,-15.73139 -21.30552,-15.73139 -24.1545,0 -44.84067,14.98818 -60.4482,32.32987 -4.45929,-2.10577 -8.17537,-4.70703 -10.90049,-7.80376 -2.84899,-3.2206 -4.21156,-6.06959 -2.60125,-9.78567 1.36256,-2.97286 -0.74322,-4.33543 -2.22965,-2.35352 -2.72513,1.98191 -2.35352,10.03341 1.11482,13.99723 3.09673,3.46834 7.43216,6.19346 12.38693,8.54698 -4.21156,4.8309 -7.80377,10.15728 -10.9005,15.73139 -12.38692,22.42034 -12.38692,44.3452 -0.49547,49.42384 17.58943,7.55602 40.75298,-16.103 50.91026,-28.11832 -5.57411,7.30828 -8.67085,31.71053 5.07864,31.71053 6.93668,0 13.99723,-4.95477 18.20878,-10.65276 4.58317,-6.06959 9.2902,-14.86431 11.51985,-19.81908 1.36256,-2.97286 -0.99096,-2.84899 -2.10578,-0.49548 -2.72513,6.19347 -6.93668,12.63467 -10.77663,17.58944 -9.78567,12.13919 -22.04873,15.23592 -18.20878,-5.69799 2.22965,-12.13919 9.2902,-25.3932 16.22687,-33.19696 7.18442,-7.80376 0.61935,-17.83717 -7.06054,-3.46834 -6.56507,12.13919 -19.69522,28.24219 -32.45375,39.01882 -22.79194,18.952 -42.48716,13.37788 -29.85249,-18.20878 4.45929,-11.02437 13.50175,-24.89773 17.96104,-31.21506 11.64371,3.71608 23.41129,4.08769 37.40852,2.849 28.86154,-2.60126 38.52334,-15.60753 38.52334,-24.64999 z m -5.07864,-1.48643 c 0,12.26306 -12.8824,21.42938 -33.4447,23.16355 -15.7314,1.36256 -25.76481,0.74322 -35.42661,-2.35351 13.87336,-16.59848 29.85249,-31.8344 53.01604,-31.8344 9.04246,0 15.85527,3.71607 15.85527,11.02436 z"
         style="font-style:normal;font-variant:normal;font-weight:normal;font-stretch:normal;font-size:123.8692627px;line-height:125%;font-family:'Great Vibes';-inkscape-font-specification:'Great Vibes, Normal';text-align:start;writing-mode:lr-tb;text-anchor:start;fill:#c00000;fill-opacity:1"
         id="path3340" />
      <path
         d="m 466.61457,281.80095 c 1.23869,-2.47738 -0.61935,-3.2206 -1.73417,-0.99095 -4.83091,10.15728 -10.9005,20.56229 -19.07587,22.1726 0.61935,-1.98191 1.36256,-7.30829 1.36256,-9.04246 -0.12387,-4.58316 -2.35351,-8.17537 -8.54698,-8.0515 7.80377,-4.70704 11.89145,-11.64371 12.13919,-17.09396 0.49548,-10.03341 -15.48366,-11.39597 -23.03968,2.35351 -2.72513,4.95478 -5.07864,9.78568 -7.30829,14.1211 -1.36256,2.84899 0.49548,3.46834 1.48643,1.36256 1.85804,-3.96381 5.07864,-9.90954 6.56507,-12.38692 7.55603,-13.00628 19.94295,-5.32638 14.1211,3.5922 -1.6103,2.47739 -5.69799,8.42311 -13.87336,10.9005 -1.98191,0.61935 -0.99095,3.09673 0.99096,2.35352 1.9819,-0.74322 3.83994,-1.48644 5.45024,-2.35352 7.18442,-1.23869 4.21156,11.2721 2.35352,17.21783 -15.7314,4.95477 -36.78917,10.03341 -43.47811,20.06682 -6.56507,10.15728 1.48643,19.81908 14.12109,16.103 17.83718,-5.20251 30.59571,-18.70426 36.91304,-36.04595 10.52889,-2.10578 15.85527,-12.75854 21.55326,-24.27838 z m -30.2241,27.25124 c -6.68894,17.58943 -22.42034,28.86154 -32.08214,30.96731 -13.00628,2.72513 -9.53794,-13.87335 1.36256,-20.19069 7.18442,-4.33542 19.69521,-7.30828 30.71958,-10.77662 z"
         style="font-style:normal;font-variant:normal;font-weight:normal;font-stretch:normal;font-size:123.8692627px;line-height:125%;font-family:'Great Vibes';-inkscape-font-specification:'Great Vibes, Normal';text-align:start;writing-mode:lr-tb;text-anchor:start;fill:#c00000;fill-opacity:1"
         id="path3342" />
      <path
         d="m 516.01325,282.04869 c 1.23869,-2.47739 -0.61935,-3.34447 -1.73417,-1.11482 -1.23869,2.35351 -3.96382,8.0515 -7.80377,13.62562 -4.8309,6.93667 -12.38692,10.65275 -17.83717,12.26305 3.59221,-9.78567 6.81281,-20.06682 9.90954,-28.36606 3.09673,-8.29924 4.95477,-13.25401 9.6618,-16.47461 l -6.68894,0 c -2.35351,0 -3.83994,0.61935 -4.8309,2.60125 -4.70703,9.78568 -12.51079,24.27838 -19.44747,32.32988 -8.0515,9.2902 -13.25401,4.33543 -7.30829,-8.54698 3.46834,-7.43215 6.93668,-14.74044 11.14824,-21.92486 1.48643,-2.60125 3.46834,-3.46834 4.58316,-4.45929 l -7.55603,0 c -2.35351,0 -3.83994,0.61935 -4.8309,2.60125 -1.85804,3.83995 -4.45929,8.91859 -6.93668,13.62562 l -2.22964,4.33543 c -0.74322,1.6103 0.3716,1.9819 1.11482,1.9819 -2.22965,4.4593 -5.32638,9.04246 -4.21155,14.36884 0.99095,4.70703 5.32637,5.57412 7.80376,5.57412 9.53793,0 17.58943,-15.35979 21.80099,-22.79195 -1.98191,6.4412 -5.94573,19.69521 -10.65276,27.87059 -10.03341,2.84899 -21.80099,4.95477 -30.10023,8.91858 -4.8309,2.22965 -9.29019,5.57412 -11.64371,10.15728 -3.71608,6.93668 -2.47738,15.11205 9.90954,15.11205 18.33265,0 30.59571,-18.95199 38.39947,-32.94922 17.83718,-6.4412 21.05778,-11.64371 29.48089,-28.73767 z m -38.2756,31.46279 -2.72513,4.58317 c -5.69798,7.80376 -18.82813,23.16355 -29.72862,23.16355 -10.65276,0 -5.94573,-14.61658 6.68894,-20.06682 7.06055,-3.09673 17.7133,-5.57412 25.76481,-7.6799 z"
         style="font-style:normal;font-variant:normal;font-weight:normal;font-stretch:normal;font-size:123.8692627px;line-height:125%;font-family:'Great Vibes';-inkscape-font-specification:'Great Vibes, Normal';text-align:start;writing-mode:lr-tb;text-anchor:start;fill:#c00000;fill-opacity:1"
         id="path3344" />
      <path
         d="m 578.86915,281.80095 c 1.2387,-2.47738 -0.74321,-3.34447 -1.73417,-1.11482 -2.60125,5.69798 -10.52888,21.42938 -16.97008,21.42938 -1.6103,0 -2.97287,-1.11482 -2.10578,-6.19346 1.73417,-8.67085 14.86431,-31.95827 14.86431,-31.95827 -4.08769,-1.48643 -16.97009,6.31733 -22.91581,11.64371 -3.71608,3.34447 -7.80377,8.0515 -10.28115,11.14823 2.97286,-6.06959 6.81281,-12.13919 9.04245,-17.3417 1.11483,-2.47738 0.37161,-4.58316 -1.85804,-5.45024 -4.21155,-1.48643 -12.13918,6.31733 -18.08491,11.64371 -3.83995,3.34447 -7.80376,8.0515 -10.28115,11.14823 4.4593,-8.91859 11.27211,-21.30551 14.98818,-23.28742 -1.73417,0.37161 -3.5922,-0.37161 -5.20251,-0.49548 -3.96381,-0.24774 -5.57411,1.85804 -8.79471,7.80377 -6.0696,11.14823 -10.9005,22.66807 -16.84622,34.43565 1.23869,-0.74321 2.35351,-0.61934 4.08768,-0.74321 2.72513,0 3.83995,-0.12387 4.70704,-1.98191 7.06054,-13.62562 12.8824,-20.31456 17.09395,-24.15451 13.00628,-12.13919 9.04246,-3.09673 4.95477,5.32638 -2.10577,4.58316 -4.33542,8.67085 -5.20251,14.1211 -0.61934,3.5922 1.11483,6.81281 3.96382,6.81281 1.6103,-7.43216 12.13919,-21.30552 17.46557,-26.26029 9.53793,-8.91859 11.76758,-5.57412 8.79472,-0.74321 -3.46834,5.57411 -5.82186,9.78567 -6.81281,13.00627 -3.71608,11.51984 2.22964,14.4927 6.68894,14.4927 9.41406,0 16.72235,-15.73139 20.43842,-23.28742 z"
         style="font-style:normal;font-variant:normal;font-weight:normal;font-stretch:normal;font-size:123.8692627px;line-height:125%;font-family:'Great Vibes';-inkscape-font-specification:'Great Vibes, Normal';text-align:start;writing-mode:lr-tb;text-anchor:start;fill:#c00000;fill-opacity:1"
         id="path3346" />
      <path
         d="m 623.19111,281.80095 c 1.23869,-2.47738 -0.74322,-3.34447 -1.73417,-1.11482 -4.21156,8.91858 -10.40502,20.68616 -16.47461,20.68616 -1.73417,-0.12386 -3.46834,-2.10577 -2.35352,-7.43215 0.74322,-4.21156 4.8309,-12.75854 8.29924,-19.69521 3.71608,-7.6799 4.95477,-9.41407 8.54698,-12.26306 l -6.68894,0 c -2.35352,0 -3.83995,0.61935 -4.8309,2.60125 -4.70703,9.78568 -11.51984,24.27838 -18.45652,32.32988 -8.0515,9.2902 -13.25401,4.33543 -7.30829,-8.54698 2.22965,-4.70703 7.80377,-15.97913 7.80377,-15.97913 3.34447,-6.81281 5.07864,-8.29924 7.92763,-10.40502 l -7.55603,0 c -2.35351,0 -3.83994,0.61935 -4.8309,2.60125 -1.85804,3.83995 -4.45929,8.91859 -6.93668,13.62562 l -2.22964,4.33543 c -0.74322,1.6103 0.37161,1.9819 1.11482,1.9819 -2.22965,4.4593 -5.32638,9.04246 -4.21155,14.36884 0.99095,4.70703 5.32637,5.57412 7.80376,5.57412 6.06959,0 12.51079,-8.42311 16.72235,-15.85527 -3.2206,10.03341 0.12387,15.85527 5.69799,15.85527 9.04245,0 15.73139,-14.24497 19.69521,-22.66808 z"
         style="font-style:normal;font-variant:normal;font-weight:normal;font-stretch:normal;font-size:123.8692627px;line-height:125%;font-family:'Great Vibes';-inkscape-font-specification:'Great Vibes, Normal';text-align:start;writing-mode:lr-tb;text-anchor:start;fill:#c00000;fill-opacity:1"
         id="path3348" />
      <path
         d="m 651.98104,257.52258 -5.94572,0 c 1.85804,-3.46834 3.5922,-6.93668 5.32637,-10.65276 9.16633,-19.81908 -4.21155,-21.92486 -12.75853,-6.93668 -3.09673,5.32638 -6.19346,11.39597 -9.04246,17.58944 l -7.43215,0 c -1.36256,0 -1.6103,2.72512 -0.24774,2.72512 l 6.4412,0 c -3.96381,9.6618 -8.54698,23.16355 -9.6618,31.58666 -1.85804,13.62562 10.40502,15.7314 17.09396,9.2902 4.58316,-4.58317 6.68894,-7.92764 12.13919,-19.32361 1.23869,-2.47738 -0.61935,-2.97286 -1.61031,-0.74321 -3.34447,6.68894 -7.43215,14.4927 -13.13014,18.70425 -4.08768,2.97287 -9.78567,1.85804 -7.92763,-6.4412 0,0 1.73417,-9.41406 2.84899,-12.63466 7.30829,-6.68894 12.26306,-13.25401 16.47462,-20.43843 l 7.18441,0 c 1.23869,0 1.48643,-2.72512 0.24774,-2.72512 z m -2.47738,-12.63467 c -1.73417,4.08769 -3.83995,8.42311 -6.19347,12.63467 l -6.19346,0 c 3.09673,-7.06055 5.82185,-13.87336 8.79472,-18.08492 7.67989,-10.77662 5.94572,0.24774 3.59221,5.45025 z m -7.80377,15.35979 c -3.59221,5.94572 -7.80376,11.64371 -12.51079,16.47461 1.73417,-4.33542 4.08768,-10.40502 6.68894,-16.47461 l 5.82185,0 z"
         style="font-style:normal;font-variant:normal;font-weight:normal;font-stretch:normal;font-size:123.8692627px;line-height:125%;font-family:'Great Vibes';-inkscape-font-specification:'Great Vibes, Normal';text-align:start;writing-mode:lr-tb;text-anchor:start;fill:#c00000;fill-opacity:1"
         id="path3350" />
    </g>
  </g>
</svg>
